<?xml version="1.0" encoding="UTF-8"?>
<!--Generator: Apple Native CoreSVG 232.5-->
<!DOCTYPE svg
PUBLIC "-//W3C//DTD SVG 1.1//EN"
       "http://www.w3.org/Graphics/SVG/1.1/DTD/svg11.dtd">
<svg version="1.1" xmlns="http://www.w3.org/2000/svg" xmlns:xlink="http://www.w3.org/1999/xlink" width="127.197" height="127.295">
 <g>
  <rect height="127.295" opacity="0" width="127.197" x="0" y="0"/>
  <path d="M63.5742 127.197C98.3887 127.197 127.197 98.3887 127.197 63.623C127.197 28.8086 98.3398 0 63.5254 0C28.7598 0 0 28.8086 0 63.623C0 98.3887 28.8086 127.197 63.5742 127.197ZM63.5742 118.115C33.3984 118.115 9.13086 93.7988 9.13086 63.623C9.13086 33.3984 33.3496 9.13086 63.5254 9.13086C93.75 9.13086 118.066 33.3984 118.066 63.623C118.066 93.7988 93.7988 118.115 63.5742 118.115Z" fill="#32d74b"/>
  <path d="M56.6895 93.5059C58.4961 93.5059 59.9609 92.6758 61.0352 91.0156L90.9668 44.0918C91.6016 43.1152 92.2363 41.8945 92.2363 40.7227C92.2363 38.3301 90.0879 36.7188 87.8906 36.7188C86.4746 36.7188 85.1074 37.5977 84.1309 39.1602L56.4941 83.0566L42.7246 65.8203C41.4551 64.1602 40.2344 63.6719 38.7695 63.6719C36.4258 63.6719 34.5703 65.5762 34.5703 67.9688C34.5703 69.1406 35.0586 70.3125 35.8398 71.3379L52.1484 91.0156C53.5156 92.7734 54.8828 93.5059 56.6895 93.5059Z" fill="#32d74b"/>
 </g>
</svg>
